<?xml version="1.0" encoding="UTF-8"?>
<svg width="32px" height="32px" viewBox="0 0 32 32" version="1.1" xmlns="http://www.w3.org/2000/svg" xmlns:xlink="http://www.w3.org/1999/xlink">
    <title>Group</title>
    <g id="Claude-Zone" stroke="none" stroke-width="1" fill="none" fill-rule="evenodd">
        <g id="Group">
            <rect id="Rectangle-2" fill="#FFFFFF" x="0" y="0" width="32" height="32" rx="4"></rect>
            <g transform="translate(4, 6)">
                <g fill="#6978B5" id="Rectangle-3">
                    <path d="M2,0 L16,0 C17.1045695,0 18,0.8954305 18,2 L18,9 C18,10.1045695 17.1045695,11 16,11 L4.96406043,11 L4.96406043,11 L1.0971377,14.0502143 L2.07186675,11 L2,11 C0.8954305,11 0,10.1045695 0,9 L0,2 C0,0.8954305 0.8954305,2.22044605e-16 2,0 Z"></path>
                </g>
                <text id="&lt;/&gt;" font-family="HelveticaNeue-Bold, Helvetica Neue" font-size="8" font-weight="bold" fill="#FFFFFF">
                    <tspan x="3" y="8">&lt;/&gt;</tspan>
                </text>
            </g>
            <path d="M12,15 L26,15 C27.1045695,15 28,15.8954305 28,17 L28,24 C28,25.1045695 27.1045695,26 26,26 L14.9640604,26 L14.9640604,26 L11.0971377,29.0502143 L12.0718667,26 L12,26 C10.8954305,26 10,25.1045695 10,24 L10,17 C10,15.8954305 10.8954305,15 12,15 Z" id="Rectangle-3" fill="#39AF3F" transform="translate(19, 22.0251) scale(-1, 1) translate(-19, -22.0251)"></path>
            <text id="..." font-family="HelveticaNeue-Bold, Helvetica Neue" font-size="8" font-weight="bold" fill="#FFFFFF">
                <tspan x="16" y="21">...</tspan>
            </text>
        </g>
    </g>
</svg>